<svg width="122" height="28" viewBox="0 0 122 28" fill="none" xmlns="http://www.w3.org/2000/svg">
<path d="M116.782 27.9999C119.421 27.9999 121.561 25.8601 121.561 23.2205C121.561 20.581 119.421 18.4412 116.782 18.4412C114.142 18.4412 112.002 20.581 112.002 23.2205C112.002 25.8601 114.142 27.9999 116.782 27.9999Z" fill="#00AB98"/>
<path d="M15.9641 20.6086C14.2447 20.752 12.4817 20.4898 11.008 19.6021C9.08226 18.4421 7.97004 16.2479 7.97004 14.0242C7.97004 12.1766 8.72835 10.3466 10.113 9.10839C10.7659 8.52454 11.5454 8.08415 12.389 7.84545C14.0775 7.36782 16.1138 7.34133 17.8289 7.71374C17.9771 7.74598 20.4862 8.54103 20.3827 8.74948L23.471 2.52151C23.471 2.52151 20.4857 0.0508728 14.6179 0.0508728C6.94854 0.0508728 0 6.33032 0 14.1027C0 21.8235 7.00003 28 14.6179 28C20.4857 28 23.471 25.6323 23.471 25.6323C23.471 25.6323 20.3865 19.3091 20.3827 19.3016C20.4932 19.5326 18.5229 20.1009 18.345 20.1542C17.5849 20.3811 16.7794 20.5406 15.9641 20.6086Z" fill="white"/>
<path d="M43.4201 0.602118V7.35545H40.3133C36.2788 7.35545 34.6835 9.14276 34.6835 13.4714V27.2271H27.5247V0.749082H32.1156L33.388 3.99303C35.2736 1.65186 37.666 0.601868 41.0666 0.601868H43.4201V0.602118Z" fill="white"/>
<path d="M72.5949 13.8943C72.5949 14.5942 72.5459 15.2937 72.4566 15.9936H52.4173C53.0397 19.6074 55.4151 21.5972 58.8877 21.5972C61.3751 21.5972 63.4169 20.4205 64.5044 18.5257H72.0285C70.1027 24.2983 65.0347 27.9759 58.888 27.9759C51.0697 27.9759 45.1541 21.9229 45.1541 13.9881C45.1541 6.01327 51.0294 0 58.888 0C67.0187 0 72.5954 6.26746 72.5954 13.8946H72.5949V13.8943ZM52.606 11.104H65.4371C64.4249 7.86681 62.1002 6.11124 58.8877 6.11124C55.7005 6.11124 53.4378 7.97029 52.606 11.104Z" fill="white"/>
<path d="M88.5579 0.0497437C92.1096 0.0497437 95.0433 1.2337 97.2053 3.34393V0.821804H106.316V27.2271H97.3083V24.2415H97.2053C95.2495 26.4035 92.1611 27.9989 88.5579 27.9989C80.8373 27.9989 75.4327 21.7706 75.4327 14.05C75.4327 6.32945 80.8373 0.0497437 88.5579 0.0497437ZM91.286 20.227C94.8376 20.227 97.4113 17.6532 97.4113 14.0503C97.4113 10.3957 94.6832 7.82208 91.286 7.82208C87.8374 7.82208 85.1095 10.3957 85.1095 14.0503C85.1095 17.6532 87.5802 20.227 91.286 20.227Z" fill="white"/>
</svg>
